# xmcd CD database file
#
# Track frame offsets:
#	150
#	16143
#	30456
#	34944
#	69851
#	76130
#	97964
#	113995
#
# Disc length: 2296 seconds
#
# Revision: 0
# Processed by: cddbd v1.4PL0 Copyright (c) Steve Scherf et al.
# Submitted via: CDex 1.50Beta6
#
DISCID=5108f608
DTITLE=윤복희 and 이정식 - 近接遭遇
DYEAR=2001
DGENRE=Jazz
TTITLE0=Stardust
TTITLE1=다시는 돌아오지 않으리
TTITLE2="....."
TTITLE3=윤복희 메들리/웃는 얼굴 다정해도, 밤안개, 다시는 돌아오지 않으리, 왜 돌아보오, 이거야 정말...
TTITLE4="....."
TTITLE5=If You Go Way
TTITLE6="....."
TTITLE7=한오백년 - 정선아리랑, 삶...
EXTD=YEAR: 2001
EXTT0=
EXTT1=
EXTT2=
EXTT3=
EXTT4=
EXTT5=
EXTT6=
EXTT7=
PLAYORDER=
